{
.appVersion = "3223";
.formatVersion = 3;
DisplayStrings = (
ABCDEFGHIJKLMNOPRSTUVWXYZ
);
date = "2023-09-13 14:25:59 +0000";
familyName = "Danfo*";
fontMaster = (
{
guides = (
{
pos = (45,636);
},
{
pos = (358,412);
},
{
pos = (322,484);
},
{
pos = (358,412);
},
{
pos = (322,484);
}
);
id = m01;
metricValues = (
{
pos = 900;
},
{
over = 16;
pos = 716;
},
{
pos = 412;
},
{
over = -14;
pos = 14;
},
{
pos = -100;
}
);
name = Flat;
}
);
glyphs = (
{
glyphname = A;
lastChange = "2023-10-31 14:27:22 +0000";
layers = (
{
backgroundImage = {
angle = 0.80004;
crop = (8.833,1.134,72.075,92.866);
imagePath = "../../../Desktop/Screenshot 2023-10-30 at 10.55.34 PM.png";
locked = 1;
pos = (-126,-112);
scale = (10.6427,10.5783);
slant = (-0.3772,0);
};
layerId = m01;
shapes = (
{
closed = 1;
nodes = (
(675,15,l),
(677,548,l),
(578,548,o),
(478,625,o),
(460,716,c),
(260,716,l),
(253,629,o),
(141,550,o),
(32,555,c),
(38,19,l),
(333,16,l),
(335,446,l),
(318,446,ls),
(299,446,o),
(281,453,o),
(281,472,cs),
(281,485,o),
(292,500,o),
(301,500,cs),
(415,501,ls),
(428,501,o),
(441,487,o),
(441,473,cs),
(441,461,o),
(428,445,o),
(419,445,cs),
(377,446,l),
(382,15,l)
);
},
{
closed = 1;
nodes = (
(361,647,l),
(413,540,l),
(384,540,ls),
(369,540,o),
(367,541,o),
(358,557,c),
(350,541,o),
(348,539,o),
(333,539,cs),
(312,539,l)
);
}
);
width = 709;
}
);
unicode = 65;
},
{
glyphname = B;
lastChange = "2023-10-31 14:27:24 +0000";
layers = (
{
backgroundImage = {
imagePath = "/var/folders/53/2k0rqfhd0nq0nv_qpccypb_w0000gq/T/TemporaryItems/NSIRD_screencaptureui_BJH9PV/Screenshot 2023-10-31 at 2.08.55 PM.png";
locked = 1;
pos = (-8,-54);
scale = (10.5875,10.5875);
slant = (0,-1.2498);
};
layerId = m01;
shapes = (
{
closed = 1;
nodes = (
(489,18,ls),
(601,18,o),
(654,111,o),
(651,189,cs),
(645,348,ls),
(643,412,o),
(623,484,o),
(537,506,c),
(537,516,l),
(645,520,o),
(647,602,o),
(647,621,cs),
(647,660,o),
(634,714,o),
(576,714,cs),
(32,714,l),
(32,634,l),
(76,634,o),
(103,616,o),
(103,588,cs),
(103,462,ls),
(103,432,o),
(76,404,o),
(33,404,c),
(42,17,l)
);
},
{
closed = 1;
nodes = (
(284,479,l),
(401,478,l),
(431,478,o),
(447,454,o),
(447,431,cs),
(447,405,o),
(431,383,o),
(407,383,c),
(283,382,l)
);
},
{
closed = 1;
nodes = (
(286,649,l),
(407,649,l),
(422,649,o),
(451,639,o),
(451,622,cs),
(451,602,o),
(423,587,o),
(402,587,c),
(287,585,l)
);
}
);
width = 683;
}
);
unicode = 66;
},
{
glyphname = C;
lastChange = "2023-10-31 14:27:26 +0000";
layers = (
{
backgroundImage = {
angle = 0.99999;
imagePath = "/var/folders/53/2k0rqfhd0nq0nv_qpccypb_w0000gq/T/TemporaryItems/NSIRD_screencaptureui_4qlux2/Screenshot 2023-10-31 at 2.12.52 PM.png";
locked = 1;
pos = (-30,-61);
scale = (10.4125,10.4292);
slant = (-0.0019,0);
};
layerId = m01;
shapes = (
{
closed = 1;
nodes = (
(442,21,ls),
(529,21,o),
(612,62,o),
(613,166,cs),
(616,486,l),
(485,488,l),
(485,449,o),
(469,415,o),
(425,415,c),
(385,416,l),
(348,416,o),
(318,437,o),
(318,466,c),
(322,579,ls),
(323,617,o),
(340,628,o),
(361,628,cs),
(439,628,ls),
(460,628,o),
(491,616,o),
(493,595,cs),
(498,549,l),
(620,551,l),
(620,666,o),
(520,714,o),
(441,714,cs),
(175,714,ls),
(101,714,o),
(32,659,o),
(32,547,cs),
(32,182,ls),
(32,83,o),
(78,21,o),
(179,21,cs)
);
}
);
width = 652;
}
);
unicode = 67;
},
{
glyphname = D;
lastChange = "2023-10-31 14:27:31 +0000";
layers = (
{
backgroundImage = {
angle = 0.50001;
imagePath = "/var/folders/53/2k0rqfhd0nq0nv_qpccypb_w0000gq/T/TemporaryItems/NSIRD_screencaptureui_eI0Q6T/Screenshot 2023-10-31 at 2.16.10 PM.png";
pos = (22,-85);
scale = (10.1634,10.1634);
slant = (-1,0);
};
layerId = m01;
shapes = (
{
closed = 1;
nodes = (
(417,20,ls),
(531,20,o),
(574,107,o),
(574,182,cs),
(574,538,ls),
(574,612,o),
(534,708,o),
(444,708,cs),
(32,708,l),
(32,645,l),
(95,643,o),
(106,596,o),
(106,558,cs),
(106,465,ls),
(106,430,o),
(95,380,o),
(33,386,c),
(33,20,l)
);
},
{
closed = 1;
nodes = (
(320,634,l),
(386,636,ls),
(418,637,o),
(439,588,o),
(439,556,cs),
(439,525,o),
(436,471,o),
(405,471,cs),
(328,471,l)
);
}
);
width = 606;
}
);
unicode = 68;
},
{
glyphname = E;
lastChange = "2023-10-31 14:27:33 +0000";
layers = (
{
backgroundImage = {
imagePath = "../../../Desktop/Screenshot 2023-10-30 at 10.52.28 PM.png";
locked = 1;
pos = (-1,-73);
scale = (10.0232,10.0232);
slant = (-1.7495,0);
};
layerId = m01;
shapes = (
{
closed = 1;
nodes = (
(607,458,l),
(489,461,l),
(489,431,o),
(481,404,o),
(460,405,cs),
(286,410,l),
(287,465,l),
(414,462,l),
(416,561,l),
(286,561,l),
(288,615,l),
(453,610,ls),
(475,609,o),
(491,590,o),
(491,557,c),
(606,555,l),
(602,710,l),
(32,711,l),
(33,640,l),
(71,640,o),
(114,629,o),
(113,599,cs),
(110,442,ls),
(109,412,o),
(74,390,o),
(37,390,c),
(37,27,l),
(610,23,l)
);
}
);
width = 642;
}
);
unicode = 69;
},
{
glyphname = F;
lastChange = "2023-10-31 14:27:35 +0000";
layers = (
{
backgroundImage = {
imagePath = "/var/folders/53/2k0rqfhd0nq0nv_qpccypb_w0000gq/T/TemporaryItems/NSIRD_screencaptureui_KhOuBu/Screenshot 2023-10-31 at 2.18.44 PM.png";
locked = 1;
pos = (-3,-42);
scale = (10.1116,10.1351);
slant = (1.2527,-2.7479);
};
layerId = m01;
shapes = (
{
closed = 1;
nodes = (
(403,14,l),
(400,382,l),
(342,382,ls),
(302,382,o),
(272,395,o),
(273,450,c),
(413,453,l),
(413,525,l),
(273,530,l),
(271,606,l),
(436,611,ls),
(464,612,o),
(501,600,o),
(501,561,c),
(608,563,l),
(605,711,l),
(32,711,l),
(32,653,l),
(93,653,o),
(120,624,o),
(120,588,cs),
(120,451,ls),
(120,418,o),
(96,390,o),
(40,395,c),
(40,14,l)
);
}
);
width = 640;
}
);
unicode = 70;
},
{
glyphname = G;
lastChange = "2023-10-31 14:27:37 +0000";
layers = (
{
backgroundImage = {
imagePath = "/var/folders/53/2k0rqfhd0nq0nv_qpccypb_w0000gq/T/TemporaryItems/NSIRD_screencaptureui_3bjn9v/Screenshot 2023-10-31 at 2.30.55 PM.png";
locked = 1;
pos = (-8,-68);
scale = (10.4398,10.4398);
slant = (-0.5,0);
};
layerId = m01;
shapes = (
{
closed = 1;
nodes = (
(135,712,ls),
(68,712,o),
(18,656,o),
(17,549,cs),
(13,219,ls),
(12,121,o),
(56,17,o),
(162,18,cs),
(316,19,ls),
(378,19,o),
(468,48,o),
(468,128,cs),
(468,154,o),
(457,207,o),
(483,207,cs),
(508,207,o),
(501,160,o),
(501,135,cs),
(500,41,l),
(552,41,ls),
(573,41,o),
(576,69,o),
(576,100,cs),
(580,486,l),
(468,486,l),
(470,465,ls),
(473,431,o),
(449,403,o),
(423,403,cs),
(378,403,ls),
(350,403,o),
(327,424,o),
(327,446,cs),
(326,583,ls),
(326,616,o),
(359,635,o),
(386,636,cs),
(412,637,ls),
(436,638,o),
(468,619,o),
(471,595,cs),
(475,557,l),
(588,566,l),
(588,656,o),
(524,712,o),
(459,712,cs)
);
}
);
width = 600;
}
);
unicode = 71;
},
{
glyphname = H;
lastChange = "2023-10-31 14:27:39 +0000";
layers = (
{
layerId = m01;
shapes = (
{
closed = 1;
nodes = (
(604,18,l),
(614,443,l),
(587,443,o),
(550,450,o),
(550,476,c),
(550,568,l),
(550,610,o),
(556,633,o),
(618,633,c),
(618,714,l),
(350,713,l),
(350,631,l),
(381,631,o),
(418,614,o),
(418,581,c),
(418,564,l),
(231,564,l),
(231,610,o),
(256,631,o),
(295,631,c),
(295,715,l),
(32,716,l),
(32,636,l),
(86,636,o),
(103,596,o),
(103,568,cs),
(103,526,ls),
(103,470,o),
(93,440,o),
(37,440,c),
(37,17,l),
(300,17,l),
(296,434,l),
(261,434,o),
(236,461,o),
(236,482,cs),
(236,506,l),
(415,506,l),
(415,480,ls),
(415,461,o),
(385,432,o),
(350,432,c),
(351,16,l)
);
}
);
width = 650;
}
);
unicode = 72;
},
{
glyphname = I;
lastChange = "2023-10-31 14:27:41 +0000";
layers = (
{
backgroundImage = {
imagePath = "../../../Desktop/Screenshot 2023-10-31 at 12.01.01 AM.png";
locked = 1;
pos = (14,-53);
scale = (8.3906,8.3951);
slant = (-1.0004,0);
};
layerId = m01;
shapes = (
{
closed = 1;
nodes = (
(350,16,l),
(350,422,l),
(297,422,o),
(278,440,o),
(277,468,cs),
(275,573,ls),
(275,597,o),
(301,625,o),
(325,625,c),
(360,626,l),
(359,716,l),
(34,718,l),
(32,633,l),
(78,633,o),
(112,613,o),
(112,557,cs),
(112,499,ls),
(112,464,o),
(102,428,o),
(36,428,c),
(38,16,l)
);
}
);
width = 392;
}
);
unicode = 73;
},
{
glyphname = J;
lastChange = "2023-10-31 14:27:43 +0000";
layers = (
{
backgroundImage = {
angle = -0.75;
imagePath = "/var/folders/53/2k0rqfhd0nq0nv_qpccypb_w0000gq/T/TemporaryItems/NSIRD_screencaptureui_Zv4Dml/Screenshot 2023-10-31 at 2.34.53 PM.png";
locked = 1;
pos = (-17,-53);
scale = (9.7015,9.6998);
slant = (-0.2499,0);
};
layerId = m01;
shapes = (
{
closed = 1;
nodes = (
(296,710,l),
(296,639,l),
(377,639,o),
(387,593,o),
(389,550,cs),
(393,440,ls),
(394,402,o),
(385,353,o),
(320,353,cs),
(165,354,ls),
(104,354,o),
(93,364,o),
(93,405,c),
(32,407,l),
(32,221,ls),
(32,105,o),
(133,13,o),
(314,18,cs),
(449,22,ls),
(535,25,o),
(635,72,o),
(633,201,cs),
(630,428,l),
(552,417,o),
(545,459,o),
(546,495,cs),
(548,563,ls),
(549,601,o),
(559,636,o),
(632,639,c),
(634,710,l)
);
}
);
width = 666;
}
);
unicode = 74;
},
{
glyphname = K;
lastChange = "2023-10-31 14:27:47 +0000";
layers = (
{
backgroundImage = {
imagePath = "/var/folders/53/2k0rqfhd0nq0nv_qpccypb_w0000gq/T/TemporaryItems/NSIRD_screencaptureui_qs2c9s/Screenshot 2023-10-31 at 2.43.41 PM.png";
pos = (-39,-70);
scale = (10.2247,10.2471);
slant = (0.7578,-1.9999);
};
layerId = m01;
shapes = (
{
closed = 1;
nodes = (
(34,716,l),
(32,633,l),
(77,630,o),
(104,594,o),
(106,557,cs),
(114,429,ls),
(117,379,o),
(97,349,o),
(39,349,c),
(39,18,l),
(284,19,l),
(278,375,l),
(260,375,o),
(244,394,o),
(244,410,cs),
(244,428,o),
(268,444,o),
(286,444,cs),
(306,444,o),
(341,424,o),
(341,404,cs),
(341,386,o),
(331,370,o),
(313,370,c),
(327,23,l),
(774,19,l),
(778,314,l),
(731,337,o),
(683,354,o),
(638,380,cs),
(597,404,o),
(559,429,o),
(520,462,c),
(624,550,l),
(642,564,o),
(661,578,o),
(683,585,cs),
(717,595,o),
(747,593,o),
(782,595,c),
(779,716,l),
(497,716,ls),
(481,716,o),
(459,716,o),
(459,681,cs),
(459,665,o),
(478,654,o),
(493,653,cs),
(505,652,l),
(506,638,l),
(309,474,l),
(295,487,o),
(293,514,o),
(293,536,cs),
(293,590,o),
(365,624,o),
(416,632,c),
(408,716,l)
);
}
);
width = 814;
}
);
unicode = 75;
},
{
glyphname = L;
lastChange = "2023-10-31 14:27:49 +0000";
layers = (
{
backgroundImage = {
imagePath = "/var/folders/53/2k0rqfhd0nq0nv_qpccypb_w0000gq/T/TemporaryItems/NSIRD_screencaptureui_rrnFGG/Screenshot 2023-10-31 at 2.47.28 PM.png";
locked = 1;
pos = (8,-71);
scale = (10.2731,10.2731);
slant = (-1.9992,0);
};
layerId = m01;
shapes = (
{
closed = 1;
nodes = (
(47,709,l),
(47,654,l),
(81,654,o),
(123,607,o),
(122,569,cs),
(119,469,ls),
(118,429,o),
(113,384,o),
(34,384,c),
(32,16,l),
(642,18,l),
(653,419,l),
(586,421,l),
(586,375,o),
(589,372,o),
(563,334,cs),
(549,314,o),
(512,308,o),
(488,308,cs),
(343,308,ls),
(301,308,o),
(282,348,o),
(282,378,cs),
(282,553,l),
(282,601,o),
(307,630,o),
(341,630,c),
(341,709,l)
);
}
);
width = 685;
}
);
unicode = 76;
},
{
glyphname = M;
lastChange = "2023-10-31 14:27:51 +0000";
layers = (
{
backgroundImage = {
imagePath = "/var/folders/53/2k0rqfhd0nq0nv_qpccypb_w0000gq/T/TemporaryItems/NSIRD_screencaptureui_ceUuFw/Screenshot 2023-10-31 at 2.49.42 PM.png";
locked = 1;
pos = (4,-53);
scale = (10.172,10.172);
slant = (0,-0.75);
};
layerId = m01;
shapes = (
{
closed = 1;
nodes = (
(43,715,l),
(46,618,l),
(92,618,o),
(122,584,o),
(122,550,cs),
(121,439,ls),
(121,403,o),
(100,369,o),
(38,369,c),
(32,14,l),
(354,14,l),
(354,356,l),
(290,356,o),
(268,396,o),
(268,436,cs),
(268,517,l),
(372,417,l),
(477,512,l),
(477,443,ls),
(477,396,o),
(458,349,o),
(400,349,c),
(392,19,l),
(708,17,l),
(702,366,l),
(653,366,o),
(628,399,o),
(628,432,cs),
(627,551,ls),
(627,587,o),
(653,625,o),
(704,625,c),
(709,715,l),
(465,715,l),
(375,549,l),
(290,715,l)
);
}
);
width = 741;
}
);
unicode = 77;
},
{
glyphname = N;
lastChange = "2023-10-31 14:27:53 +0000";
layers = (
{
backgroundImage = {
angle = 0.5;
crop = (0,0,94,102);
imagePath = "/var/folders/53/2k0rqfhd0nq0nv_qpccypb_w0000gq/T/TemporaryItems/NSIRD_screencaptureui_93olGb/Screenshot 2023-10-31 at 2.34.38 PM.png";
locked = 1;
pos = (-17,-83);
scale = (8.5642,8.5642);
slant = (-0.5,0);
};
layerId = m01;
shapes = (
{
closed = 1;
nodes = (
(717,12,l),
(729,398,l),
(683,398,o),
(659,416,o),
(658,463,cs),
(656,552,ls),
(655,590,o),
(688,632,o),
(737,632,c),
(744,718,l),
(438,716,l),
(440,612,l),
(483,612,o),
(527,563,o),
(522,524,cs),
(515,467,l),
(196,711,l),
(37,714,l),
(39,636,l),
(86,636,o),
(120,591,o),
(118,553,cs),
(114,457,ls),
(113,427,o),
(92,398,o),
(38,410,c),
(32,15,l),
(361,17,l),
(350,387,l),
(306,387,o),
(266,411,o),
(267,445,cs),
(268,507,l),
(453,380,l),
(389,377,l),
(395,12,l)
);
}
);
width = 776;
}
);
unicode = 78;
},
{
glyphname = O;
lastChange = "2023-10-31 14:27:54 +0000";
layers = (
{
backgroundImage = {
imagePath = "/var/folders/53/2k0rqfhd0nq0nv_qpccypb_w0000gq/T/TemporaryItems/NSIRD_screencaptureui_Y8O9x7/Screenshot 2023-10-30 at 10.47.51 PM.png";
locked = 1;
pos = (-28,-94);
scale = (9.8585,9.8596);
slant = (0.5002,-1.4547);
};
layerId = m01;
shapes = (
{
closed = 1;
nodes = (
(623,10,o),
(673,48,o),
(674,121,cs),
(681,559,ls),
(682,640,o),
(608,716,o),
(528,716,cs),
(164,716,ls),
(88,716,o),
(32,659,o),
(32,580,cs),
(33,150,ls),
(33,64,o),
(83,11,o),
(163,11,cs),
(525,10,ls)
);
},
{
closed = 1;
nodes = (
(383,442,o),
(362,465,o),
(362,485,cs),
(365,615,ls),
(365,636,o),
(383,656,o),
(404,656,cs),
(501,656,ls),
(521,656,o),
(539,631,o),
(540,602,cs),
(544,492,ls),
(545,468,o),
(524,445,o),
(501,442,c),
(477,442,l),
(462,442,o),
(460,442,o),
(451,461,c),
(443,442,o),
(441,442,o),
(426,442,c),
(403,442,ls)
);
}
);
width = 713;
}
);
unicode = 79;
},
{
glyphname = P;
lastChange = "2023-10-31 14:27:56 +0000";
layers = (
{
backgroundImage = {
imagePath = "../../../Desktop/Screenshot 2023-10-31 at 12.10.26 AM.png";
locked = 1;
pos = (-2,-89);
scale = (8.4062,8.4062);
slant = (0,-0.5);
};
layerId = m01;
shapes = (
{
closed = 1;
nodes = (
(333,17,l),
(339,402,l),
(307,400,ls),
(278,398,o),
(236,432,o),
(236,461,cs),
(236,489,l),
(552,490,l),
(644,490,o),
(653,538,o),
(653,584,cs),
(653,650,o),
(623,719,o),
(510,719,c),
(35,715,l),
(35,654,l),
(71,654,o),
(89,623,o),
(89,595,cs),
(91,461,ls),
(91,435,o),
(79,403,o),
(37,403,c),
(32,13,l)
);
},
{
closed = 1;
nodes = (
(244,581,l),
(244,625,l),
(457,630,ls),
(472,630,o),
(484,620,o),
(484,605,cs),
(484,592,o),
(474,577,o),
(461,577,cs)
);
}
);
width = 685;
}
);
unicode = 80;
},
{
glyphname = R;
lastChange = "2023-10-31 13:57:53 +0000";
layers = (
{
backgroundImage = {
angle = 1.75227;
imagePath = "/var/folders/53/2k0rqfhd0nq0nv_qpccypb_w0000gq/T/TemporaryItems/NSIRD_screencaptureui_TwqCJ2/Screenshot 2023-10-31 at 2.52.55 PM.png";
locked = 1;
pos = (-25,-68);
scale = (9.7212,9.7785);
slant = (-1.507,0);
};
layerId = m01;
shapes = (
{
closed = 1;
nodes = (
(279,15,l),
(279,317,l),
(250,317,o),
(213,329,o),
(213,354,cs),
(213,386,o),
(270,386,o),
(302,386,cs),
(332,386,o),
(386,386,o),
(386,356,cs),
(386,334,o),
(361,324,o),
(330,324,c),
(337,16,l),
(574,16,l),
(574,293,ls),
(574,366,o),
(491,434,o),
(418,446,cs),
(345,446,ls),
(319,446,o),
(284,446,o),
(284,489,c),
(437,489,ls),
(562,489,o),
(570,556,o),
(570,618,cs),
(570,695,o),
(491,722,o),
(433,722,cs),
(40,722,l),
(40,672,l),
(79,672,o),
(100,644,o),
(100,615,cs),
(101,537,ls),
(101,507,o),
(84,477,o),
(31,477,c),
(31,470,o),
(30,169,o),
(30,15,c)
);
},
{
closed = 1;
nodes = (
(224,575,l),
(224,635,l),
(361,641,l),
(386,641,o),
(403,628,o),
(403,611,cs),
(403,592,o),
(386,573,o),
(362,573,c)
);
}
);
width = 600;
}
);
unicode = (82,114);
},
{
glyphname = S;
lastChange = "2023-10-31 14:27:58 +0000";
layers = (
{
backgroundImage = {
angle = 1.24993;
imagePath = "../../../Desktop/Screenshot 2023-10-31 at 12.14.09 AM.png";
locked = 1;
pos = (0,-98);
scale = (8.2414,8.2429);
slant = (-0.2498,0);
};
layerId = m01;
shapes = (
{
closed = 1;
nodes = (
(624,15,o),
(689,82,o),
(689,160,cs),
(689,335,l),
(689,473,o),
(535,494,o),
(422,509,cs),
(394,513,o),
(359,534,o),
(359,565,cs),
(359,587,o),
(392,603,o),
(414,603,cs),
(441,603,o),
(471,573,o),
(471,547,c),
(694,534,l),
(693,559,o),
(695,633,o),
(679,652,cs),
(639,699,o),
(588,709,o),
(538,709,c),
(134,704,ls),
(101,704,o),
(59,678,o),
(59,617,cs),
(59,523,o),
(261,477,o),
(370,455,cs),
(411,447,o),
(466,441,o),
(466,385,cs),
(466,362,o),
(434,342,o),
(411,342,cs),
(381,342,o),
(344,362,o),
(345,402,cs),
(346,435,l),
(32,436,l),
(32,154,ls),
(32,67,o),
(113,18,o),
(180,18,cs),
(521,16,ls)
);
},
{
closed = 0;
nodes = (
(399,103,l)
);
}
);
width = 726;
}
);
unicode = 83;
},
{
glyphname = T;
lastChange = "2023-10-31 14:18:29 +0000";
layers = (
{
layerId = m01;
shapes = (
{
closed = 1;
nodes = (
(519,15,l),
(514,414,l),
(385,415,l),
(383,546,l),
(404,552,o),
(423,555,o),
(440,555,cs),
(487,555,o),
(516,534,o),
(517,505,cs),
(518,466,l),
(630,465,l),
(632,715,l),
(32,715,l),
(34,465,l),
(146,466,l),
(147,505,ls),
(148,534,o),
(177,555,o),
(224,555,cs),
(241,555,o),
(260,552,o),
(281,546,c),
(279,415,l),
(150,414,l),
(145,15,l)
);
}
);
width = 662;
}
);
unicode = (84,116);
},
{
glyphname = U;
lastChange = "2023-10-30 21:35:40 +0000";
layers = (
{
layerId = m01;
shapes = (
{
closed = 1;
nodes = (
(428,1,o),
(504,54,o),
(504,160,c),
(511,160,l),
(524,15,l),
(615,15,l),
(615,412,l),
(557,412,o),
(534,444,o),
(534,524,cs),
(534,604,o),
(557,636,o),
(615,636,c),
(615,716,l),
(350,716,l),
(350,636,l),
(386,636,o),
(395,583,o),
(395,503,cs),
(395,423,o),
(386,376,o),
(350,376,cs),
(339,376,o),
(327,376,o),
(316,391,c),
(306,376,o),
(295,376,o),
(285,376,cs),
(249,376,o),
(240,423,o),
(240,503,cs),
(240,583,o),
(249,636,o),
(285,636,c),
(285,716,l),
(20,716,l),
(20,636,l),
(78,636,o),
(101,604,o),
(101,524,cs),
(101,444,o),
(78,412,o),
(20,412,c),
(19,190,ls),
(19,44,o),
(77,1,o),
(278,1,cs)
);
}
);
width = 635;
}
);
unicode = (85,117);
},
{
glyphname = V;
lastChange = "2023-10-31 14:28:00 +0000";
layers = (
{
backgroundImage = {
imagePath = "../../../Desktop/Screenshot 2023-10-31 at 12.19.50 AM.png";
locked = 1;
pos = (-4,-93);
scale = (8.4547,8.4547);
};
layerId = m01;
shapes = (
{
closed = 1;
nodes = (
(590,568,ls),
(597,598,o),
(599,629,o),
(662,628,c),
(666,715,l),
(436,714,l),
(437,614,l),
(468,618,o),
(482,575,o),
(476,553,cs),
(402,279,l),
(347,552,ls),
(340,587,o),
(347,609,o),
(385,622,c),
(385,712,l),
(32,712,l),
(32,634,l),
(86,631,o),
(93,598,o),
(99,567,cs),
(202,13,l),
(455,11,l)
);
}
);
width = 698;
}
);
unicode = 86;
},
{
glyphname = W;
lastChange = "2023-10-31 14:42:31 +0000";
layers = (
{
backgroundImage = {
imagePath = "../../../Desktop/Screenshot 2023-10-31 at 3.39.32 PM.png";
locked = 1;
pos = (8,-76);
scale = (7.8746,7.8746);
};
layerId = m01;
shapes = (
{
closed = 1;
nodes = (
(32,716,l),
(32,637,l),
(87,637,o),
(110,611,o),
(110,579,cs),
(110,510,ls),
(110,477,o),
(95,443,o),
(35,443,c),
(35,14,l),
(303,14,l),
(304,334,l),
(260,338,l),
(352,417,l),
(430,319,l),
(386,314,l),
(395,14,l),
(671,14,l),
(672,455,l),
(618,455,o),
(601,487,o),
(601,520,cs),
(601,575,ls),
(601,624,o),
(604,633,o),
(681,633,c),
(680,716,l),
(399,716,l),
(404,613,l),
(456,613,o),
(468,589,o),
(467,562,cs),
(462,457,l),
(364,574,l),
(251,496,l),
(249,573,ls),
(248,608,o),
(262,633,o),
(310,633,c),
(306,716,l)
);
}
);
width = 713;
}
);
unicode = (87,119);
},
{
glyphname = X;
lastChange = "2023-10-31 14:39:01 +0000";
layers = (
{
backgroundImage = {
imagePath = "/var/folders/53/2k0rqfhd0nq0nv_qpccypb_w0000gq/T/TemporaryItems/NSIRD_screencaptureui_GqBOLo/Screenshot 2023-10-31 at 3.36.10 PM.png";
locked = 1;
pos = (1,-25);
scale = (8.3226,8.3226);
slant = (0,-1.7495);
};
layerId = m01;
shapes = (
{
closed = 1;
nodes = (
(32,716,l),
(34,646,l),
(64,646,o),
(82,636,o),
(96,617,cs),
(199,481,l),
(97,371,l),
(44,370,l),
(55,14,l),
(293,14,l),
(287,334,l),
(261,334,o),
(246,343,o),
(235,360,c),
(306,455,l),
(380,352,l),
(366,334,o),
(348,331,o),
(328,331,c),
(332,14,l),
(573,14,l),
(573,364,l),
(519,360,l),
(416,481,l),
(512,612,ls),
(527,632,o),
(543,647,o),
(579,647,c),
(575,716,l),
(338,716,l),
(338,654,l),
(358,647,o),
(368,640,o),
(378,622,c),
(311,520,l),
(237,623,l),
(243,641,o),
(256,651,o),
(275,658,c),
(272,716,l)
);
}
);
width = 611;
}
);
unicode = (88,120);
},
{
glyphname = Y;
lastChange = "2023-10-31 14:38:57 +0000";
layers = (
{
layerId = m01;
shapes = (
{
closed = 1;
nodes = (
(140,357,l),
(250,357,l),
(250,397,l),
(233,406,o),
(201,430,o),
(145,493,cs),
(110,534,o),
(84,576,o),
(70,597,cs),
(61,611,o),
(45,612,o),
(32,612,c),
(32,716,l),
(295,716,l),
(295,618,l),
(245,618,ls),
(234,618,o),
(222,613,o),
(222,596,cs),
(222,582,o),
(237,565,o),
(260,543,cs),
(331,474,l),
(402,543,ls),
(425,565,o),
(440,582,o),
(440,596,cs),
(440,613,o),
(428,618,o),
(417,618,cs),
(367,618,l),
(367,716,l),
(630,716,l),
(630,612,l),
(617,612,o),
(601,611,o),
(592,597,cs),
(578,576,o),
(552,534,o),
(517,493,cs),
(461,430,o),
(429,406,o),
(412,397,c),
(412,357,l),
(522,357,l),
(522,14,l),
(140,14,l)
);
}
);
width = 662;
}
);
unicode = (89,121);
},
{
glyphname = Z;
lastChange = "2023-10-31 14:35:56 +0000";
layers = (
{
backgroundImage = {
imagePath = "/var/folders/53/2k0rqfhd0nq0nv_qpccypb_w0000gq/T/TemporaryItems/NSIRD_screencaptureui_8W4SdP/Screenshot 2023-10-31 at 3.32.06 PM.png";
locked = 1;
pos = (1,-44);
scale = (7.7498,7.7498);
slant = (0,-0.5);
};
layerId = m01;
shapes = (
{
closed = 1;
nodes = (
(616,18,l),
(617,414,l),
(532,417,l),
(532,382,o),
(507,362,o),
(483,364,cs),
(325,376,l),
(618,647,l),
(618,720,l),
(33,720,l),
(33,490,l),
(133,488,l),
(133,518,o),
(156,538,o),
(176,537,cs),
(315,537,l),
(32,210,l),
(32,14,l)
);
}
);
width = 650;
}
);
unicode = (90,122);
},
